<?xml version="1.0" encoding="utf-8"?>
<!-- Generator: Adobe Illustrator 19.2.1, SVG Export Plug-In . SVG Version: 6.00 Build 0)  -->
<svg version="1.1" id="Layer_1" xmlns="http://www.w3.org/2000/svg" xmlns:xlink="http://www.w3.org/1999/xlink" x="0px" y="0px"
	 viewBox="0 0 325.17285 204.91907" enable-background="new 0 0 325.17285 204.91907" xml:space="preserve">
<title>logo-wide</title>
<g>
	<g>
		<path fill="#17BAED" d="M161.84798,160.09293l-1.2206-0.3709c-19.33771-5.88611-37.06931-15.52371-49.9278-27.13811
			c-16.1056-14.547-24.6185-32.2102-24.6185-51.0806v-63.0271l2.3331-1.1546c46.66821-23.0955,100.20181-23.0955,146.87,0
			l2.3331,1.1546l-0.0029,63.0271c0,18.8704-8.51291,36.5336-24.61861,51.0806c-12.8584,11.6144-30.5894,21.252-49.92711,27.13811
			L161.84798,160.09293z"/>
	</g>
	<path fill="#405673" d="M94.46587,23.70493v57.7984c0,23.6477,17.7351,54.2997,67.3821,69.81999
		c49.6465-15.51909,67.38161-46.17229,67.38161-69.81999l0.0029-57.7984C186.26176,3.28822,137.43538,3.28822,94.46587,23.70493z"/>
	<g>
		<g>
			<g>
				<path fill="#83D3F0" d="M120.45177,95.72862c3.039,6.1155,7.4349,11.5104,12.84971,15.7601l14.13988-6.119
					c-4.61989-4.686-8.44089-10.178-11.39978-16.38821L120.45177,95.72862z"/>
			</g>
			<g>
				<path fill="#2AA7C8" d="M189.55937,65.82292c2.5015,6.4067,3.89,12.95261,4.1432,19.5277l14.1405-6.1189
					c0.6089-6.8559-0.3152-13.75391-2.6933-20.1559L189.55937,65.82292z"/>
			</g>
			<g>
				<path fill="#3BBEE2" d="M164.99928,76.45003l7.77129,17.9592l16.1828-7.0033c-0.01869-6.6114-1.29199-13.21349-3.79401-19.6787
					L164.99928,76.45003z"/>
			</g>
			<g>
				<path fill="#6ACDF0" d="M140.44217,87.07722c2.99989,6.25,6.9413,11.6975,11.74841,16.2373l16.18289-7.0021l-7.77119-17.9592
					L140.44217,87.07722z"/>
			</g>
		</g>
		<g>
			<g>
				<path fill="#8ACCA3" d="M115.85528,71.17452c-0.6089,6.8559,0.3152,13.75391,2.6939,20.1571l15.5898-6.7471
					c-2.5015-6.4079-3.89-12.9527-4.1432-19.529L115.85528,71.17452z"/>
			</g>
			<g>
				<path fill="#4BB973" d="M176.25697,45.03653c4.61929,4.6848,8.44029,10.1779,11.39981,16.3881l15.5898-6.7459
					c-3.03961-6.1166-7.43491-11.5127-12.84972-15.7612L176.25697,45.03653z"/>
			</g>
			<g>
				<path fill="#73C27E" d="M134.74437,63.00032c0.0193,6.6114,1.2926,13.2146,3.79521,19.6798l20.1595-8.724l-7.77121-17.9591
					L134.74437,63.00032z"/>
			</g>
			<g>
				<path fill="#68BF77" d="M155.32487,54.09383l7.77129,17.9592l20.16-8.7229c-3.00038-6.2511-6.94189-11.6998-11.74838-16.2384
					L155.32487,54.09383z"/>
			</g>
		</g>
		<g>
			<g>
				<path fill="#A364A8" d="M193.66397,90.58762c-0.51289,9.5884-3.38109,17.5275-6.0148,22.9364
					c9.8358-6.6558,16.83731-16.966,19.35109-28.7068L193.66397,90.58762z"/>
			</g>
			<g>
				<path fill="#DFBDDA" d="M137.94948,114.69852c10.2587,6.1926,22.53809,8.1543,34.10049,5.5609
					c-5.7025-1.7698-13.3907-5.1059-20.7648-11.3325L137.94948,114.69852z"/>
			</g>
			<g>
				<path fill="#B47DB5" d="M174.67368,98.80633l6.90678,15.9612c2.44362-4.2275,6.11662-12.0262,7.11502-22.0299
					L174.67368,98.80633z"/>
			</g>
			<g>
				<path fill="#CC9DC8" d="M156.25308,106.77692c7.98999,6.1389,16.16708,8.7918,20.93269,9.8984l-6.9091-15.9659
					L156.25308,106.77692z"/>
			</g>
		</g>
		<g>
			<g>
				<g>
					<path fill="#F9EF6D" d="M136.01707,36.90443c-9.8189,6.6558-16.8075,16.9566-19.319,28.6845l13.33571-5.7703
						C130.54498,50.20213,133.39568,42.28873,136.01707,36.90443z"/>
				</g>
				<g>
					<path fill="#D4CF26" d="M151.63316,30.15022c5.7101,1.7722,13.41121,5.1083,20.78001,11.3291l13.33569-5.7716
						C175.48497,29.51393,163.19968,27.55342,151.63316,30.15022z"/>
				</g>
			</g>
			<g>
				<path fill="#F9EC23" d="M142.11967,35.64342c-2.4565,4.2462-6.1208,12.0367-7.1174,22.0252l14.0224-6.0687L142.11967,35.64342z"
					/>
			</g>
			<g>
				<path fill="#EBE40E" d="M146.51727,33.74023l6.905,15.9565l14.0218-6.0675
					C159.48048,37.51852,151.29457,34.85612,146.51727,33.74023z"/>
			</g>
		</g>
	</g>
</g>
<g>
	<g>
		<path fill="#FFFFFF" d="M16.73828,178.57434v3.45996H5.74805v4.94922h9.74023v3.45898H5.74805v5.42969h11.49609v3.45898H2.02246
			v-20.75684H16.73828z"/>
		<path fill="#FFFFFF" d="M29.82715,196.24426c2.79492,0,4.01855-1.03809,4.3916-3.5127l3.75195,0.39941
			c-0.42578,3.99121-2.82129,6.57324-8.14355,6.57324c-6.38672,0-8.8877-4.28516-8.8877-10.75195
			c0-6.46582,2.50098-10.75,8.8877-10.75c5.32227,0,7.71777,2.58105,8.14355,6.57227l-3.75195,0.39941
			c-0.37305-2.47461-1.59668-3.5127-4.3916-3.5127c-4.25781,0-5.08203,3.43262-5.08203,7.29102
			C24.74512,192.81165,25.56934,196.24426,29.82715,196.24426z"/>
		<path fill="#FFFFFF" d="M41.77246,188.95227c0-6.5459,2.74121-10.75,9.31348-10.75c6.57324,0,9.31445,4.2041,9.31445,10.75
			c0,6.54688-2.74121,10.75195-9.31445,10.75195C44.51367,199.70422,41.77246,195.49915,41.77246,188.95227z M45.55078,188.95227
			c0,3.93945,1.0918,7.29199,5.53516,7.29199c4.44434,0,5.50879-3.35254,5.50879-7.29199c0-3.9375-1.06445-7.29102-5.50879-7.29102
			C46.64258,181.66125,45.55078,185.01477,45.55078,188.95227z"/>
		<path fill="#FFFFFF" d="M74.2334,196.24426c2.79492,0,4.01855-1.03809,4.3916-3.5127l3.75195,0.39941
			c-0.42578,3.99121-2.82129,6.57324-8.14355,6.57324c-6.38672,0-8.8877-4.28516-8.8877-10.75195
			c0-6.46582,2.50098-10.75,8.8877-10.75c5.32227,0,7.71777,2.58105,8.14355,6.57227l-3.75195,0.39941
			c-0.37305-2.47461-1.59668-3.5127-4.3916-3.5127c-4.25781,0-5.08203,3.43262-5.08203,7.29102
			C69.15137,192.81165,69.97559,196.24426,74.2334,196.24426z"/>
		<path fill="#FFFFFF" d="M103.5293,178.57434v20.75684h-3.72559v-8.88867H91.0752v8.88867h-3.72559v-20.75684h3.72559v8.40918
			h8.72852v-8.40918H103.5293z"/>
		<path fill="#FFFFFF" d="M121.46094,194.38196h-7.7168l-1.7832,4.94922h-4.01855l8.00977-21.12891h3.2998l8.01074,21.12891
			h-4.01855L121.46094,194.38196z M117.60254,183.01868l-2.6875,7.9834h5.375L117.60254,183.01868z"/>
		<path fill="#FFFFFF" d="M135.53418,195.87219h9.84668v3.45898h-13.57227v-20.75684h3.72559V195.87219z"/>
		<path fill="#FFFFFF" d="M153.42383,195.87219h9.84668v3.45898h-13.57227v-20.75684h3.72559V195.87219z"/>
		<path fill="#FFFFFF" d="M182.55957,178.57434v3.45996h-10.99023v4.94922h9.74023v3.45898h-9.74023v5.42969h11.49609v3.45898
			h-15.22168v-20.75684H182.55957z"/>
		<path fill="#FFFFFF" d="M193.41309,188.63391l-2.04883-3.19336l0.05371,4.97559v8.91504h-3.72559v-20.75684h3.43262
			l7.1582,10.69824l2.04883,3.19336l-0.05273-4.97656v-8.91504h3.72559v20.75684h-3.43262L193.41309,188.63391z"/>
		<path fill="#FFFFFF" d="M217.8916,196.24426c2.02246,0,3.54004-0.37207,4.60449-0.95801v-4.17773h-4.23145v-3.32617h7.92969
			v9.73926c-2.87402,1.7832-5.26855,2.18262-8.30273,2.18262c-6.38672,0-9.1543-4.25781-9.1543-10.75195
			c0-6.46582,2.76758-10.75,9.1543-10.75c5.32227,0,7.9834,2.58105,8.40918,6.57227l-3.75195,0.39941
			c-0.37207-2.47461-1.8623-3.5127-4.65723-3.5127c-4.25781,0-5.34863,3.43262-5.34863,7.29102
			C212.54297,192.81165,213.63379,196.24426,217.8916,196.24426z"/>
		<path fill="#FFFFFF" d="M246.3623,178.57434v3.45996h-10.99023v4.94922h9.73926v3.45898h-9.73926v5.42969h11.49609v3.45898
			h-15.22168v-20.75684H246.3623z"/>
		<path fill="#FFFFFF" d="M256.08984,199.33118h-3.99121v-3.99219h3.99121V199.33118z"/>
		<path fill="#FFFFFF" d="M259.98926,188.95227c0-6.5459,2.74121-10.75,9.31445-10.75s9.31348,4.2041,9.31348,10.75
			c0,6.54688-2.74023,10.75195-9.31348,10.75195S259.98926,195.49915,259.98926,188.95227z M263.76855,188.95227
			c0,3.93945,1.09082,7.29199,5.53516,7.29199s5.50879-3.35254,5.50879-7.29199c0-3.9375-1.06445-7.29102-5.50879-7.29102
			S263.76855,185.01477,263.76855,188.95227z"/>
		<path fill="#FFFFFF" d="M287.49902,199.33118h-3.72559v-20.75684h8.56836c3.59277,0,7.05176,1.19727,7.05176,6.30664
			c0,3.67285-1.78223,5.2959-4.09766,5.9082l5.0293,8.54199h-4.36426l-4.65723-8.14258h-3.80469V199.33118z M292.58105,187.70227
			c1.30469,0,3.00781-0.24023,3.00781-2.82129c0-2.60742-1.70312-2.84668-3.00781-2.84668h-5.08203v5.66797H292.58105z"/>
		<path fill="#FFFFFF" d="M313.04199,196.24426c2.02246,0,3.53906-0.37207,4.60352-0.95801v-4.17773h-4.23145v-3.32617h7.93066
			v9.73926c-2.87402,1.7832-5.26953,2.18262-8.30273,2.18262c-6.38672,0-9.1543-4.25781-9.1543-10.75195
			c0-6.46582,2.76758-10.75,9.1543-10.75c5.32227,0,7.9834,2.58105,8.40918,6.57227l-3.75195,0.39941
			c-0.37305-2.47461-1.86328-3.5127-4.65723-3.5127c-4.25781,0-5.34863,3.43262-5.34863,7.29102
			C307.69336,192.81165,308.78418,196.24426,313.04199,196.24426z"/>
	</g>
</g>
</svg>
