<svg id="Layer_1" data-name="Layer 1" xmlns="http://www.w3.org/2000/svg" viewBox="0 0 320.948 134.95649"><title>logo-nwei</title><path d="M84.62842,27.51465v8.14648H81.25879V15.999L81.16064,11.7793H84.1377L84.334,13.67676a5.249,5.249,0,0,1,4.44922-2.25781c3.99121,0,5.59424,3.043,5.59424,9.0293,0,5.9873-1.603,9.0293-5.59424,9.0293A4.9593,4.9593,0,0,1,84.62842,27.51465Zm0-3.042a4.14443,4.14443,0,0,0,3.3042,1.99512c2.4209,0,2.97705-1.96289,2.97705-6.01953s-0.55615-6.01953-2.97705-6.01953a4.14562,4.14562,0,0,0-3.3042,1.99609v8.04785Z" transform="translate(0 -2.94629)" fill="#8cbe59"/><path d="M98.77881,20.44824c0-6.80469,1.99561-9.0293,6.543-9.0293,4.51465,0,6.51025,2.22461,6.51025,9.0293,0,6.83789-1.99561,9.0293-6.51025,9.0293C100.77441,29.47754,98.77881,27.28613,98.77881,20.44824Zm9.68359,0c0-4.67773-.98145-6.084-3.14062-6.084s-3.14062,1.40625-3.14062,6.084c0,4.67871.98145,6.08594,3.14063,6.08594S108.4624,25.127,108.4624,20.44824Z" transform="translate(0 -2.94629)" fill="#8cbe59"/><path d="M126.54785,11.7793L129.165,24.7998l1.603-13.02051h3.27148l-2.61719,17.50293h-3.92578L124.814,15.90137l-2.6499,13.38086h-3.9585L115.62109,11.7793h3.27148l1.603,13.02051,2.61719-13.02051h3.43506Z" transform="translate(0 -2.94629)" fill="#8cbe59"/><path d="M144.34326,26.72949c2.061,0,2.6499-.98047,2.6499-2.71484l3.43506,0.42578c0,2.91113-1.01416,5.03711-5.98682,5.03711-5.33252,0-6.57568-3.20508-6.57568-9.0293,0-5.85547,1.30859-9.0293,6.47754-9.0293,5.13623,0,6.28125,3.207,6.28125,9.0293v1.27637h-9.19287C141.43164,24.99609,141.95508,26.72949,144.34326,26.72949Zm-2.91162-7.6543h5.627c-0.03271-3.23926-.49072-4.9082-2.748-4.9082C142.08594,14.167,141.46436,15.60645,141.43164,19.0752Z" transform="translate(0 -2.94629)" fill="#8cbe59"/><path d="M158.73242,16.62109V29.11816h-3.36963V15.999l-0.06543-4.21973h2.97705l0.19629,1.99512a4.41239,4.41239,0,0,1,3.76221-2.35547,2.8953,2.8953,0,0,1,1.34131.29492l-0.16357,3.10742a4.01057,4.01057,0,0,0-1.1123-.13086A4.45786,4.45786,0,0,0,158.73242,16.62109Z" transform="translate(0 -2.94629)" fill="#8cbe59"/><path d="M173.71973,26.72949c2.061,0,2.6499-.98047,2.6499-2.71484l3.43506,0.42578c0,2.91113-1.01416,5.03711-5.98682,5.03711-5.33252,0-6.57568-3.20508-6.57568-9.0293,0-5.85547,1.30859-9.0293,6.47754-9.0293,5.13623,0,6.28125,3.207,6.28125,9.0293v1.27637h-9.19287C170.80811,24.99609,171.33154,26.72949,173.71973,26.72949Zm-2.91162-7.6543h5.627c-0.03271-3.23926-.49072-4.9082-2.748-4.9082C171.4624,14.167,170.84082,15.60645,170.80811,19.0752Z" transform="translate(0 -2.94629)" fill="#8cbe59"/><path d="M194.10254,13.38184V2.94629h3.36963V24.89746l0.09814,4.2207h-2.97705L194.397,27.2207a5.14934,5.14934,0,0,1-4.4165,2.25684c-4.02393,0-5.627-3.042-5.627-9.0293,0-5.98633,1.603-9.0293,5.627-9.0293A4.90029,4.90029,0,0,1,194.10254,13.38184Zm0,3.043a4.0925,4.0925,0,0,0-3.27148-1.99609c-2.4209,0-3.00977,1.96289-3.00977,6.01953s0.58887,6.01953,3.00977,6.01953a4.0913,4.0913,0,0,0,3.27148-1.99512V16.4248Z" transform="translate(0 -2.94629)" fill="#8cbe59"/><path d="M223.77588,20.44824c0,5.9873-1.603,9.0293-5.59424,9.0293a5.24573,5.24573,0,0,1-4.44922-2.25684l-0.19629,1.89746h-2.97705l0.09814-4.2207V2.94629h3.36963V13.38184a4.96186,4.96186,0,0,1,4.15479-1.96289C222.17285,11.41895,223.77588,14.46191,223.77588,20.44824Zm-9.749,4.02441a4.14443,4.14443,0,0,0,3.3042,1.99512c2.4209,0,2.97705-1.96289,2.97705-6.01953s-0.55615-6.01953-2.97705-6.01953a4.14562,4.14562,0,0,0-3.3042,1.99609v8.04785Z" transform="translate(0 -2.94629)" fill="#8cbe59"/><path d="M237.19678,11.7793h3.56592l-4.90723,16.61914-2.4209,7.2627h-3.79492l2.45361-6.6084L227.12061,11.7793h3.56592L233.958,25.09473Z" transform="translate(0 -2.94629)" fill="#8cbe59"/><path d="M102.38165,132.93386V124.2057H105.209c2.957,0,3.72413,1.88379,3.72413,4.36484,0,2.47952-.76715,4.36331-3.72413,4.36331h-2.82731Zm1.8613-1.69737h1.00094c1.36287,0,1.758-.97845,1.758-2.66594,0-1.67727-.39516-2.66577-1.758-2.66577H104.243v5.33171Z" transform="translate(0 -2.94629)" fill="#fff"/><path d="M112.34863,132.93386V124.2057h1.863v8.72816h-1.863Z" transform="translate(0 -2.94629)" fill="#fff"/><path d="M123.77016,130.15307c0,2.16513-1.362,2.94386-3.42218,2.94386a6.07865,6.07865,0,0,1-2.72336-.53591v-1.90867a5.40123,5.40123,0,0,0,2.53694.67564c1.3155,0,1.70061-.40607,1.70061-1.00009,0-.66406-0.2919-0.88524-1.1756-1.00179-2.21148-.28951-3.062-0.94181-3.062-2.65248,0-1.58269.96686-2.63271,3.27086-2.63271a5.687,5.687,0,0,1,2.46606.43265v1.80387a6.05906,6.05906,0,0,0-2.32633-.46588c-0.966,0-1.5026.3028-1.5026,0.86206,0,0.62725.33859,0.82526,1.24547,0.9534C122.71179,127.89661,123.77016,128.29109,123.77016,130.15307Z" transform="translate(0 -2.94629)" fill="#fff"/><path d="M130.71182,124.04092a4.21559,4.21559,0,0,1,1.81631.32785v1.75736a3.87415,3.87415,0,0,0-1.63075-.33791c-1.41774,0-2.07021.56914-2.07021,2.78232,0,2.21165.65247,2.78079,2.07021,2.78079a3.90089,3.90089,0,0,0,1.63075-.3362v1.75565a4.22312,4.22312,0,0,1-1.81631.32615c-2.55024,0-3.75907-1.24479-3.77082-4.52639C126.95276,125.28741,128.16159,124.04092,130.71182,124.04092Z" transform="translate(0 -2.94629)" fill="#fff"/><path d="M135.81383,128.57055c0-2.66577.73392-4.52962,3.48046-4.52962,2.74739,0,3.47961,1.86386,3.47961,4.52962,0,2.66594-.73222,4.52639-3.47961,4.52639C136.54775,133.09693,135.81383,131.23648,135.81383,128.57055Zm1.88635,0c0,2.037.44253,2.8406,1.59411,2.8406,1.15328,0,1.59513-.80362,1.59513-2.8406,0-2.03852-.44185-2.8406-1.59513-2.8406C138.14271,125.72995,137.70017,126.532,137.70017,128.57055Z" transform="translate(0 -2.94629)" fill="#fff"/><path d="M152.56791,124.2057l-2.42039,8.77468h-2.14263l-2.41954-8.77468h1.97871l1.51249,6.64465,1.51351-6.64465h1.97786Z" transform="translate(0 -2.94629)" fill="#fff"/><path d="M160.89494,129.25624h-3.3622v1.98024h3.70164v1.69737h-5.56464V124.2057h5.56464v1.69908h-3.70164v1.68732h3.3622v1.66415Z" transform="translate(0 -2.94629)" fill="#fff"/><path d="M166.38137,132.93386h-1.86215V124.2057H167.488c2.35138,0,3.12023,1.07166,3.12023,2.7341a2.3125,2.3125,0,0,1-1.22314,2.35138l1.54929,3.64268h-2.17824l-1.17493-3.27h-1.1998v3.27Zm0-4.959H167.651a1.04092,1.04092,0,0,0,0-2.07h-1.26966v2.07Z" transform="translate(0 -2.94629)" fill="#fff"/><path d="M182.26334,124.04092a4.20769,4.20769,0,0,1,1.81717.32785v1.75736a3.8626,3.8626,0,0,0-1.629-.33791c-1.42115,0-2.07345.56914-2.07345,2.78232,0,2.21165.6523,2.78079,2.07345,2.78079a3.88924,3.88924,0,0,0,1.629-.3362v1.75565a4.21523,4.21523,0,0,1-1.81717.32615c-2.54768,0-3.75736-1.24479-3.76912-4.52639C178.506,125.28741,179.71566,124.04092,182.26334,124.04092Z" transform="translate(0 -2.94629)" fill="#fff"/><path d="M191.94166,132.93386v-3.65427h-2.65418v3.65427h-1.86215V124.2057h1.86215v3.37481h2.65418V124.2057h1.86215v8.72816h-1.86215Z" transform="translate(0 -2.94629)" fill="#fff"/><path d="M196.90563,132.93386l2.42124-8.77468h2.14161l2.42124,8.77468h-1.97853l-0.40931-1.79229h-2.20994l-0.40777,1.79229h-1.97854Zm2.74739-3.27h1.491l-0.74551-3.30648Z" transform="translate(0 -2.94629)" fill="#fff"/><path d="M211.59956,132.93386l-2.81743-5.21191,0.04669,5.21191H206.99V124.2057h1.83881l2.81725,5.21362-0.04652-5.21362h1.83881v8.72816h-1.83881Z" transform="translate(0 -2.94629)" fill="#fff"/><path d="M216.78148,128.57055c0-3.03861,1.09824-4.52962,3.75072-4.52962a6.57416,6.57416,0,0,1,2.571.40948v1.81546a5.86761,5.86761,0,0,0-2.22323-.47764c-1.66227,0-2.21147.7438-2.21147,2.78232,0,2.17671.594,2.78079,2.21147,2.78079a3.44216,3.44216,0,0,0,.53591-0.03493v-1.76894h-1.23473v-1.66415h3.09688v4.62113a5.76488,5.76488,0,0,1-2.80567.59249C217.87972,133.09693,216.78148,131.60762,216.78148,128.57055Z" transform="translate(0 -2.94629)" fill="#fff"/><path d="M231.86137,129.25624h-3.36322v1.98024h3.701v1.69737h-5.56464V124.2057h5.56464v1.69908h-3.701v1.68732h3.36322v1.66415Z" transform="translate(0 -2.94629)" fill="#fff"/><path d="M234.99643,134.38994l0.36108-3.20168h1.97871l-1.06842,3.20168h-1.27136Z" transform="translate(0 -2.94629)" fill="#fff"/><path d="M248.52548,125.90478v7.02908H246.665v-7.02908h-2.10838V124.2057h6.07721v1.69908h-2.10838Z" transform="translate(0 -2.94629)" fill="#fff"/><path d="M253.26811,128.57055c0-2.66577.73222-4.52962,3.47961-4.52962s3.48114,1.86386,3.48114,4.52962c0,2.66594-.73374,4.52639-3.48114,4.52639S253.26811,131.23648,253.26811,128.57055Zm1.88533,0c0,2.037.44441,2.8406,1.59428,2.8406,1.15158,0,1.59581-.80362,1.59581-2.8406,0-2.03852-.44424-2.8406-1.59581-2.8406C255.59784,125.72995,255.15344,126.532,255.15344,128.57055Z" transform="translate(0 -2.94629)" fill="#fff"/><path d="M263.51557,128.57055c0-3.03861,1.09331-4.52962,3.74748-4.52962a6.56917,6.56917,0,0,1,2.571.40948v1.81546a5.85247,5.85247,0,0,0-2.22-.47764c-1.664,0-2.21318.7438-2.21318,2.78232,0,2.17671.594,2.78079,2.21318,2.78079a3.43388,3.43388,0,0,0,.53421-0.03493v-1.76894h-1.23473v-1.66415h3.09688v4.62113a5.7622,5.7622,0,0,1-2.804.59249C264.60888,133.09693,263.51557,131.60762,263.51557,128.57055Z" transform="translate(0 -2.94629)" fill="#fff"/><path d="M278.59206,129.25624H275.2307v1.98024H278.93v1.69737h-5.56311V124.2057H278.93v1.69908H275.2307v1.68732h3.36136v1.66415Z" transform="translate(0 -2.94629)" fill="#fff"/><path d="M285.82578,125.90478v7.02908h-1.862v-7.02908H281.857V124.2057h6.07567v1.69908h-2.10685Z" transform="translate(0 -2.94629)" fill="#fff"/><path d="M295.49081,132.93386v-3.65427h-2.65419v3.65427h-1.86215V124.2057h1.86215v3.37481h2.65419V124.2057H297.353v8.72816h-1.86214Z" transform="translate(0 -2.94629)" fill="#fff"/><path d="M305.98279,129.25624H302.618v1.98024h3.70266v1.69737h-5.56311V124.2057h5.56311v1.69908H302.618v1.68732h3.36476v1.66415Z" transform="translate(0 -2.94629)" fill="#fff"/><path d="M311.4694,132.93386h-1.86216V124.2057H312.576c2.35138,0,3.12006,1.07166,3.12006,2.7341a2.3125,2.3125,0,0,1-1.22314,2.35138l1.54776,3.64268h-2.17671l-1.17645-3.27H311.4694v3.27Zm0-4.959h1.268a1.04072,1.04072,0,0,0,0-2.07h-1.268v2.07Z" transform="translate(0 -2.94629)" fill="#fff"/><path d="M319.843,130.88529a1.10582,1.10582,0,0,1,0,2.21165A1.10582,1.10582,0,0,1,319.843,130.88529Z" transform="translate(0 -2.94629)" fill="#fff"/><path d="M122.89566,82.23758h-1.71322L108.2917,61.4615V80.29807l2.90706,0.32376v1.61575h-8.01247V80.62183l2.90791-.32376V59.9422l-2.90791-.32274V58.00353h5.26678L120.699,77.64968V59.9422l-2.90876-.32274V58.00353h8.01417v1.61592l-2.90876.32274V82.23758Z" transform="translate(0 -2.94629)" fill="#fff"/><path d="M133.71959,82.55964c-5.5246,0-7.108-3.45711-7.108-8.39945,0-4.944,1.58337-8.40116,7.108-8.40116,5.55732,0,7.109,3.45711,7.109,8.40116C140.82858,79.10253,139.2769,82.55964,133.71959,82.55964Zm0-14.797c-4.26414,0-4.84657,2.74654-4.84657,6.39757,0,3.65018.58243,6.39757,4.84657,6.39757,4.20109,0,4.84759-2.74739,4.84759-6.39757C138.56718,70.50916,137.92067,67.76262,133.71959,67.76262Z" transform="translate(0 -2.94629)" fill="#fff"/><path d="M148.90529,80.29807l2.9079,0.32376v1.61575h-8.07739V80.62183l2.90791-.32376V68.02044l-2.90791-.32274V66.08195h4.16684l0.48582,1.35776a8.76165,8.76165,0,0,1,5.20117-1.68067,11.71125,11.71125,0,0,1,1.93951.16222v4.32838h-1.61592l-0.28951-2.487a8.88858,8.88858,0,0,0-4.71842,1.03332V80.29807Z" transform="translate(0 -2.94629)" fill="#fff"/><path d="M167.969,82.23758a7.13345,7.13345,0,0,1-1.90543.32206c-2.77908,0-5.36493-1.06416-5.36493-4.23176V68.02044H157.467V66.40469l3.23167-.35529V61.3642l2.26226-.258v4.97574h5.65377v1.93849h-5.65377V78.26381c0,1.971,1.19571,2.51939,3.10268,2.51939a8.40829,8.40829,0,0,0,1.90543-.25884v1.71322Z" transform="translate(0 -2.94629)" fill="#fff"/><path d="M183.96412,70.50916c0-2.10174-1.22809-2.74654-3.23167-2.74654a8.00114,8.00114,0,0,0-4.42653,1.03332V80.29807l2.90723,0.32376v1.61575H171.2005V80.62183l2.90723-.32376V59.9422l-2.90723-.32274V58.00353h5.10541v9.08a8.114,8.114,0,0,1,4.42653-1.32453c3.8441,0,5.49155,1.74475,5.49155,4.84657v9.69246l2.90876,0.32376v1.61575h-5.16864V70.50916Z" transform="translate(0 -2.94629)" fill="#fff"/><path d="M214.6581,66.08195V67.6977l-2.64924.29122-4.00717,14.57073H206.321l-4.42653-14.05492-4.42636,14.05492h-1.68067l-4.03887-14.57073-2.61583-.29122V66.08195h7.59311V67.6977l-2.61925.29122,2.58432,10.75918,4.00888-12.66614h2.39125l4.00377,12.66614,2.58772-10.75918-2.61942-.29122V66.08195h7.595Z" transform="translate(0 -2.94629)" fill="#fff"/><path d="M217.59686,75.19266c0.22629,2.77994,1.42269,5.3651,5.0105,5.3651a12.33935,12.33935,0,0,0,5.33-.90535v1.93781a13.06806,13.06806,0,0,1-5.33.96942c-5.3,0-7.3036-3.7468-7.3036-8.39945,0-4.65282,2.00359-8.40116,7.3036-8.40116,5.49154,0,6.23364,3.8124,6.23364,8.40116v1.03247H217.59686Zm-0.03169-1.84119h8.85289c0-2.874-.16137-5.58884-3.84562-5.58884C218.92309,67.76262,217.75823,70.50916,217.56516,73.35146Z" transform="translate(0 -2.94629)" fill="#fff"/><path d="M237.887,72.96448c4.5896,0.42021,5.68785,1.97121,5.68785,4.6196,0,2.48855-1.58423,4.97557-6.49487,4.97557a15.90605,15.90605,0,0,1-4.81419-.80719V77.7463h1.61575l0.28951,2.58517a18.53973,18.53973,0,0,0,2.94216.22629c3.35811,0,4.26346-1.422,4.26346-2.94046,0-1.48608-.45105-2.5211-3.651-2.77823-4.68435-.42106-5.65291-2.06851-5.65291-4.29822,0-2.294,1.48437-4.78182,6.04228-4.78182a12.09166,12.09166,0,0,1,4.65112.807v4.00632h-1.61575l-0.288-2.58346a16.29338,16.29338,0,0,0-2.78062-.22629c-3.19844,0-3.879,1.19554-3.879,2.77823C234.20269,71.96184,234.78684,72.70581,237.887,72.96448Z" transform="translate(0 -2.94629)" fill="#fff"/><path d="M256.66115,82.23758a7.15661,7.15661,0,0,1-1.907.32206c-2.77738,0-5.3634-1.06416-5.3634-4.23176V68.02044h-3.23V66.40469l3.23-.35529V61.3642l2.2614-.258v4.97574h5.65462v1.93849h-5.65462V78.26381c0,1.971,1.19656,2.51939,3.102,2.51939a8.42387,8.42387,0,0,0,1.907-.25884v1.71322Z" transform="translate(0 -2.94629)" fill="#fff"/><path d="M108.38815,92.85021V101.318h7.07662l0.32274-2.91046h1.61507v7.94755h-1.61507l-0.32274-2.90706h-7.07662v9.37211h9.82316l0.32274-2.90893H120.15v5.04066H103.18629v-1.61592l2.90791-.32274V92.65732l-2.90791-.32291V90.71866H120.15v5.04049H118.534l-0.32274-2.90893h-9.82316Z" transform="translate(0 -2.94629)" fill="#fff"/><path d="M133.42837,113.66038a8.57747,8.57747,0,0,1-4.91064,1.61592c-4.23261,0-5.78344-2.39125-5.78344-5.10541,0-2.42465,1.26046-4.45976,5.84836-4.94575l4.32906-.45088v-0.90535c0-2.35956-.83957-3.39134-3.84478-3.39134a17.88046,17.88046,0,0,0-5.49325,1.03178v-1.937a16.79875,16.79875,0,0,1,5.49325-1.09994c4.84657,0,6.1072,2.19818,6.1072,5.42986v9.11088l2.90791,0.32274v1.61592H133.9135Zm-5.00709-6.68947c-2.35973.32274-3.39236,1.64745-3.39236,3.2,0,1.45268.48343,3.10012,3.55373,3.10012a7.922,7.922,0,0,0,4.32906-1.293v-5.62292Z" transform="translate(0 -2.94629)" fill="#fff"/><path d="M145.19019,113.01319l2.90791,0.32274v1.61592h-8.07739v-1.61592l2.90723-.32274V100.73386l-2.90723-.32291V98.7952h4.16854l0.48343,1.35793a8.7628,8.7628,0,0,1,5.20271-1.68067,11.56814,11.56814,0,0,1,1.93781.16307v4.32991H150.1983l-0.29054-2.48787a8.88094,8.88094,0,0,0-4.71758,1.03178v11.50383Z" transform="translate(0 -2.94629)" fill="#fff"/><path d="M164.253,114.95185a7.1882,7.1882,0,0,1-1.90543.32445c-2.77806,0-5.36408-1.06842-5.36408-4.23347v-10.309h-3.23082V99.11811l3.23082-.35444V94.07915l2.26226-.25952V98.7952h5.65376v1.93866h-5.65376v10.24405c0,1.97036,1.19571,2.51939,3.10183,2.51939a8.48831,8.48831,0,0,0,1.90543-.25782v1.71237Z" transform="translate(0 -2.94629)" fill="#fff"/><path d="M179.60081,103.22173c0-2.1002-1.22809-2.74415-3.2315-2.74415a7.99675,7.99675,0,0,0-4.42653,1.03178v11.50383l2.90876,0.32274v1.61592h-8.01417v-1.61592l2.90876-.32274V92.65732l-2.90876-.32291V90.71866h5.10541v9.08a8.115,8.115,0,0,1,4.42653-1.32624c3.84563,0,5.49478,1.7456,5.49478,4.84742v9.69331l2.90706,0.32274v1.61592h-5.17033V103.22173Z" transform="translate(0 -2.94629)" fill="#fff"/><path d="M199.019,113.01319l2.90723,0.32274v1.61592h-8.10738v-1.61592l2.90706-.32274V92.65732l-2.90706-.32291V90.71866h8.10738v1.61575l-2.90723.32291v20.35587Z" transform="translate(0 -2.94629)" fill="#fff"/><path d="M210.00529,113.01319l2.90876,0.32274v1.61592h-8.0791v-1.61592l2.90893-.32274V100.73386l-2.90893-.32291V98.7952h4.16854l0.486,1.35793a8.03462,8.03462,0,0,1,4.87741-1.68067c3.84563,0,5.49478,1.7456,5.49478,4.84742v9.69331l2.90706,0.32274v1.61592h-5.17187V103.22173c0-2.1002-1.22638-2.74415-3.23-2.74415a7.76209,7.76209,0,0,0-4.3616,1.03178v11.50383Z" transform="translate(0 -2.94629)" fill="#fff"/><path d="M230.52168,105.67943c4.58789,0.41936,5.68631,1.97036,5.68631,4.6196,0,2.4877-1.58253,4.97727-6.49334,4.97727a15.9223,15.9223,0,0,1-4.81419-.80873V110.4604h1.61592l0.28951,2.58432a18.61111,18.61111,0,0,0,2.94046.22629c3.35964,0,4.265-1.42115,4.265-2.94046,0-1.4859-.45259-2.51939-3.651-2.77891-4.68435-.42106-5.65444-2.06851-5.65444-4.295,0-2.29651,1.48761-4.7842,6.04228-4.7842a12.08457,12.08457,0,0,1,4.65436.80873v4.007H233.785l-0.29122-2.586a16.47191,16.47191,0,0,0-2.77908-.22459c-3.19827,0-3.87562,1.19486-3.87562,2.77908C226.83911,104.67781,227.41984,105.41991,230.52168,105.67943Z" transform="translate(0 -2.94629)" fill="#fff"/><path d="M248.64851,114.95185a7.21182,7.21182,0,0,1-1.907.32445c-2.77908,0-5.3634-1.06842-5.3634-4.23347v-10.309h-3.23V99.11811l3.23-.35444V94.07915l2.26157-.25952V98.7952h5.65445v1.93866h-5.65445v10.24405c0,1.97036,1.19486,2.51939,3.10183,2.51939a8.519,8.519,0,0,0,1.907-.25782v1.71237Z" transform="translate(0 -2.94629)" fill="#fff"/><path d="M256.49808,113.01319l2.91046,0.32274v1.61592h-8.01417v-1.61592l2.90706-.32274V100.73386l-2.90706-.32291V98.7952h5.10371v14.218Zm-2.67923-21.77873h3.165v3.1676h-3.165v-3.1676Z" transform="translate(0 -2.94629)" fill="#fff"/><path d="M271.03881,114.95185a7.201,7.201,0,0,1-1.907.32445c-2.77908,0-5.3634-1.06842-5.3634-4.23347v-10.309h-3.23167V99.11811l3.23167-.35444V94.07915l2.2614-.25952V98.7952h5.65632v1.93866h-5.65632v10.24405c0,1.97036,1.19656,2.51939,3.102,2.51939a8.49208,8.49208,0,0,0,1.907-.25782v1.71237Z" transform="translate(0 -2.94629)" fill="#fff"/><path d="M286.06383,100.73386l-2.90893-.32291V98.7952h5.17033v14.218l2.90723,0.32274v1.61592h-4.16685l-0.486-1.35793a8.03776,8.03776,0,0,1-4.87741,1.68238c-3.84563,0-5.49478-1.7456-5.49478-4.84742v-9.695l-2.90723-.32291V98.7952h5.16863v11.82657c0,2.1002,1.22979,2.74586,3.23338,2.74586a7.76129,7.76129,0,0,0,4.36161-1.03349V100.73386Z" transform="translate(0 -2.94629)" fill="#fff"/><path d="M302.7046,114.95185a7.22429,7.22429,0,0,1-1.90543.32445c-2.78232,0-5.36664-1.06842-5.36664-4.23347v-10.309h-3.23V99.11811l3.23-.35444V94.07915l2.26311-.25952V98.7952h5.65291v1.93866h-5.65291v10.24405c0,1.97036,1.19486,2.51939,3.10353,2.51939a8.50321,8.50321,0,0,0,1.90543-.25782v1.71237Z" transform="translate(0 -2.94629)" fill="#fff"/><path d="M307.58031,107.90778c0.228,2.77721,1.42286,5.36323,5.009,5.36323a12.3367,12.3367,0,0,0,5.33171-.90517v1.9402a13.12191,13.12191,0,0,1-5.33171.97027c-5.29848,0-7.30035-3.75089-7.30035-8.402,0-4.65282,2.00187-8.40184,7.30035-8.40184,5.49308,0,6.23688,3.81394,6.23688,8.40184v1.03349H307.58031Zm-0.03152-1.84051h8.85289c0-2.87724-.16137-5.58969-3.8441-5.58969C308.90656,100.47757,307.74339,103.22173,307.54879,106.06727Z" transform="translate(0 -2.94629)" fill="#fff"/><path d="M83.02587,74.08777a0.76625,0.76625,0,0,0-.312-0.3362q0.48795,1.01219.92034,2.05028A13.11135,13.11135,0,0,0,83.02587,74.08777Z" transform="translate(0 -2.94629)" fill="#fff"/><path d="M92.8872,101.00684a46.9645,46.9645,0,1,0-55.96715,35.811,46.51128,46.51128,0,0,0,10.01026,1.08495,47.14217,47.14217,0,0,0,23.84553-6.46488,1.69754,1.69754,0,0,1,1.52919-.09l13.83681,6.02064a4.50513,4.50513,0,0,0,6.19956-3.165,4.50555,4.50555,0,0,0-.04482-2.11673L87.821,115.18139a1.70252,1.70252,0,0,1,.16052-1.26131A47.03278,47.03278,0,0,0,92.8872,101.00684Zm-9.69979,12.93657a1.92671,1.92671,0,0,0,.21368,1.42439,2.81794,2.81794,0,0,1,.21726.65724,1.25122,1.25122,0,0,1,.015.16819c0.00988,0.09474.01994,0.20636,0.02164,0.30945a2.44434,2.44434,0,0,1-.055.61072,18.33584,18.33584,0,0,0,.96021,4.68776c0.49008,1.58576,1.08836,3.34141,1.4295,4.96892l-0.069-.08162a8.12127,8.12127,0,0,0,1.27205,2.92716,0.91977,0.91977,0,0,0-.158-0.14978l0.2038,0.50592-0.07072-.09491c0.12644,0.78214-.41936.71228,0.5366,2.47287-0.16887-.12985-0.17875.00494-0.16972,0.17637a4.565,4.565,0,0,1-.97351-0.66389,5.10463,5.10463,0,0,0-1.16231-.58414c-0.669-.21794-2.1474-1.491-3.20168-1.887-0.44765-.16307-0.90517-0.3195-1.36952-0.47764-0.81214-.27452-1.64745-0.56079-2.52195-0.91352a2.54619,2.54619,0,0,1-.13223-0.23959,0.57728,0.57728,0,0,0-.31047-0.30468l0.03749,0.18318,0.06663,0.33774a3.55346,3.55346,0,0,0-1.70828-.92528,2.90258,2.90258,0,0,1-1.24308-.66729,2.11949,2.11949,0,0,1-.321-0.39925c-0.06322.05811-.13325,0.11468-0.20056,0.173-0.07327.06322-.144,0.12814-0.2222,0.18983l-1.283-.50269L72.34,125.59022l-0.36432-.12644-1.29557-.45429c-0.55244.39772-1.10744,0.78214-1.66329,1.14323a1.67414,1.67414,0,0,1-1.05325.76221c-0.11741.02982-.23379,0.06322-0.3512,0.09815a39.32015,39.32015,0,0,1-14.95175,5.147,10.2758,10.2758,0,0,1-3.77168.72557c-0.33024.015-.67138,0.02488-1.00929,0.03647a6.86635,6.86635,0,0,0-2.858.42447,1.69294,1.69294,0,0,1-2.60681-.89529,28.71986,28.71986,0,0,1-4.85407-.40113L36.697,131.922a17.34981,17.34981,0,0,0-4.88065-.3161,1.688,1.688,0,0,1-1.81393-.99021,1.70692,1.70692,0,0,1-.14314-0.72216c-0.14808-.05317-0.29854-0.1065-0.42924-0.15149-0.49843-.17637-1.01423-0.35767-1.50022-0.58243a1.64623,1.64623,0,0,1-.56164-0.41766,1.69046,1.69046,0,0,1-.68638-0.05317c-1.16811-.3362-2.31474-0.71552-3.40889-1.12994a1.68861,1.68861,0,0,1-.55159-2.819c-0.11655-.09151-0.23055-0.183-0.3454-0.27452-0.02573-.02011-0.04993-0.04-0.074-0.06169a2.79661,2.79661,0,0,1-.48173-0.55568,18.12572,18.12572,0,0,1-1.60007-1.31141c-0.441-.39431-0.85866-0.76374-1.39031-1.15652a1.69669,1.69669,0,0,1-.45259-0.50592,21.44945,21.44945,0,0,1-2.23414-2.10327c-0.1065-.11315-0.213-0.23141-0.31865-0.34949a4.623,4.623,0,0,1-.91847-0.39772,1.68593,1.68593,0,0,1-.84877-1.23473,1.62722,1.62722,0,0,1-.18966-0.14978A33.56249,33.56249,0,0,1,8.079,110.00952a20.96267,20.96267,0,0,1-3.39219-8.65659A1.69205,1.69205,0,0,1,5.7469,99.564a1.64721,1.64721,0,0,1,.5216-0.11315c-0.252-1.02838-.4427-1.96695-0.58738-2.883-0.13479-.41936-0.26549-0.84366-0.38852-1.26813a1.69331,1.69331,0,0,1,.10309-1.20065C5.39314,94.08,5.39314,94.06331,5.39161,94.04592l-0.00085-.00341-0.03408-.56079a1.71011,1.71011,0,0,1,.13632-0.7738c-0.02317-.24947-0.05078-0.50422-0.07821-0.74875a17.80853,17.80853,0,0,1-.138-3.66109,1.59912,1.59912,0,0,1,.08145-0.37267A18.71207,18.71207,0,0,1,5.553,84.80861a1.66921,1.66921,0,0,1,.14723-0.4652c0.03493-.48582.1065-1.02667,0.213-1.64063a1.67517,1.67517,0,0,1,.41442-0.84622l0.05146-.05743a42.52282,42.52282,0,0,1,1.69737-7.18977,1.73479,1.73479,0,0,1,.20142-0.40351c0.06492-.09321.12814-0.17807,0.19307-0.257a14.67091,14.67091,0,0,1,1.22144-2.99464,1.68432,1.68432,0,0,1,.67309-0.68229,13.61436,13.61436,0,0,1,1.4295-3.06263,1.66518,1.66518,0,0,1,.708-0.6448c0.01909-.015.05078-0.0409,0.09406-0.08077a1.69674,1.69674,0,0,1,.32121-0.90944,43.892,43.892,0,0,1,8.28954-8.95939,1.70072,1.70072,0,0,1,.72131-0.32956c0.04175-.02914.08333-0.05981,0.12729-0.09065,0.1324-.09321.26889-0.19221,0.402-0.282a4.2187,4.2187,0,0,1,1.08-.5625c0.03238-.05248.06646-0.10565,0.10309-0.15984a6.77994,6.77994,0,0,1,2.58687-2.10089,1.95076,1.95076,0,0,1,.26872-0.11894,6.36913,6.36913,0,0,1,1.21394-.31371c0.82543-.753,1.70572-1.4893,2.62419-2.19321a1.68762,1.68762,0,0,1,1.91464-.09735,28.32241,28.32241,0,0,1,7.14393-1.72065,2.4774,2.4774,0,0,1,.8578-0.5117,1.66166,1.66166,0,0,1,.38937-0.099c0.91932-.11649,1.82722-0.20469,2.69917-0.26043a1.70139,1.70139,0,0,1,.95681.22464,1.68666,1.68666,0,0,1,1.41536.52918,1.67946,1.67946,0,0,1,1.00759-.34031,34.27148,34.27148,0,0,1,6.87435.53334,1.69243,1.69243,0,0,1,1.104.71722c0.35938,0.04826.68485,0.1065,0.94352,0.15808a22.47855,22.47855,0,0,1,3.50125.996,1.68221,1.68221,0,0,1,.70223.49923c0.04993,0.02246.10071,0.04327,0.15064,0.06572a3.815,3.815,0,0,1,.8745.49425c0.06731,0.0167.13308,0.03152,0.20124,0.04908a3.90441,3.90441,0,0,1,1.82228-.07327,1.68056,1.68056,0,0,1,.99838.52177c0.07412,0.01414.15558,0.02573,0.2188,0.03408a3.88964,3.88964,0,0,1,1.32709.38017,1.72747,1.72747,0,0,1,.39192.29462c0.07327-.00494.14723-0.0092,0.22476-0.01091a6.194,6.194,0,0,1,2.967.82134,1.70584,1.70584,0,0,1,.66644.60493c0.18642,0.14808.58243,0.40436,0.83122,0.56488a7.65924,7.65924,0,0,1,1.45012,1.09585,1.54144,1.54144,0,0,1,.268.38681,10.143,10.143,0,0,1,2.15575,1.3063,1.712,1.712,0,0,1,.49434.62077,8.1336,8.1336,0,0,0,.956,1.01253,15.85189,15.85189,0,0,0,1.203,1.07421,1.68192,1.68192,0,0,1,.72233.996c0.28116,0.29786.56079,0.60152,0.83275,0.90858a1.68454,1.68454,0,0,1,.42686,1.1848c0.15149,0.183.29871,0.366,0.44594,0.54989a1.73465,1.73465,0,0,1,.27469.49672c0.86445,1.07507,1.68238,2.19495,2.43862,3.34567a1.69551,1.69551,0,0,1,.268,1.1117,1.68889,1.68889,0,0,1,.88933,1.24888c0.00426,0.02317.0092,0.04737,0.015,0.07157l0.06492,0.17381c0.07157,0.18812.144,0.38272,0.198,0.5475,0.17637,0.381.39687,0.80617,0.60816,1.21735a15.20624,15.20624,0,0,1,1.05087,2.318,1.877,1.877,0,0,1,.38357.07327,1.68966,1.68966,0,0,1,1.20985,1.58082c0.06748,0.16478.1215,0.27878,0.16052,0.35614a2.28982,2.28982,0,0,1,.87365.73307,1.69,1.69,0,0,1,.23976,1.53668c0.04482,0.24385.11553,0.56335,0.15967,0.7663a13.2005,13.2005,0,0,1,.312,1.69993,8.63244,8.63244,0,0,1,.29871,1.4203,1.95756,1.95756,0,0,0,.09406.416,5.70148,5.70148,0,0,1,.2021.63986,1.704,1.704,0,0,1,.0184.78709,1.67219,1.67219,0,0,1,.47593.95442c0.04908,0.3437.10156,0.69064,0.15387,1.03673,0.30536,2.02182.57,3.76656,0.11485,4.98306a1.68511,1.68511,0,0,1-1.66823,1.09245,41.29435,41.29435,0,0,1-5.63792,19.25678C82.96844,112.25763,83.52259,113.70366,83.18741,113.94342Z" transform="translate(0 -2.94629)" fill="#fff"/><path d="M85.99223,89.30415c0.18881,1.139.49826-.342,0.68467-1.67488-0.26549-.38443-0.55415-0.76136-0.83037-1.13079C85.92815,87.43126,85.97467,88.36643,85.99223,89.30415Z" transform="translate(0 -2.94629)" fill="#fff"/><path d="M85.11517,82.1868c0.04158,2.55364-.8561-0.19136-1.22723-1.04507,0.52586,1.95127.77465,2.29156,1.04081,2.18915,0.2539-.0973.47014-0.63816,0.74551-0.34779-0.4393-1.005-.91847-1.9828-1.4353-2.92546C84.54773,80.75492,84.84644,81.46464,85.11517,82.1868Z" transform="translate(0 -2.94629)" fill="#fff"/><path d="M83.52174,77.10218c-0.63969-1.91617-.936-1.184-0.78947-0.35444C82.98514,76.78932,83.64835,77.9518,83.52174,77.10218Z" transform="translate(0 -2.94629)" fill="#fff"/><path d="M84.69,92.41756a16.27961,16.27961,0,0,1-.23635,3.0778,8.65092,8.65092,0,0,1-1.71816,3.25655A36.70062,36.70062,0,0,0,54.30309,55.59064a41.87988,41.87988,0,0,1,4.89241.89205,0.73734,0.73734,0,0,1-.52927-0.47678,37.15766,37.15766,0,0,1,12.37919,6.19121,61.78956,61.78956,0,0,1,9.27225,8.88868,45.59925,45.59925,0,0,0-5.514-7.59907,19.87643,19.87643,0,0,0-7.73216-5.40907,9.825,9.825,0,0,0-2.77721-1.65239,5.08447,5.08447,0,0,1-2.0893-1.23149,22.52954,22.52954,0,0,0-8.60751-1.932,66.48137,66.48137,0,0,0-8.51584.387c-1.00435-.00835-0.55841-0.37114-0.8837-0.64156a37.41311,37.41311,0,0,1,5.62463-.55074c-1.14817-.12064-2.30809-0.18983-3.47041-0.2055a16.8792,16.8792,0,0,1,3.20833-.27707,5.38219,5.38219,0,0,0,2.43624-.29548,70.08265,70.08265,0,0,0-8.9628.69814,22.51331,22.51331,0,0,0-7.9668,2.68741,46.92539,46.92539,0,0,1,6.68538-1.90867c1.07507-.00494,2.7-0.05743,2.63015.27128a65.77538,65.77538,0,0,0-9.01188,2.903c-0.91932.38272-1.82875,0.81623-2.73239,1.27716a36.25627,36.25627,0,0,0-4.53627,2.14587l-0.27452.15728,0.01738,0.1065a37.339,37.339,0,0,0-3.65768,2.50525l-0.27793.21965A36.42149,36.42149,0,0,0,10.97363,82.16363a23.23406,23.23406,0,0,1,.4427-3.71766c0.25628-1.2988.56164-2.442,0.70563-3.12926a37.56676,37.56676,0,0,0-1.23814,4.80244c-0.30536-.39925-1.31039,3.17765-1.09909.50592a27.103,27.103,0,0,0-.996,7.99185,35.45234,35.45234,0,0,0,1.041,7.80373A5.98318,5.98318,0,0,1,9.887,95.04857c0.07,0.76715.19221,1.51845,0.30877,2.27231a1.87766,1.87766,0,0,0-.17892.38766,4.83243,4.83243,0,0,0,.35358.75556,36.41318,36.41318,0,0,0,5.89505,14.06651l-0.03408-.02011c0.17057,0.23805.36688,0.486,0.56659,0.73222,0.48173,0.65894.9643,1.31806,1.48846,1.94207,0.07,0.17637.01585,0.25952-.26123,0.1796,0.51921,0.38613,1.08921.87041,1.68817,1.39116a36.81323,36.81323,0,0,0,7.42356,6.05728l-0.08486.055c0.12985,0.03323.29036,0.1048,0.43759,0.15967a36.31027,36.31027,0,0,0,16.14831,5.147c2.1699,0.23959,4.05454.34285,5.6812,0.50422a4.93,4.93,0,0,1,2.17484-.74721,36.3738,36.3738,0,0,0,5.58646-1.173,34.49855,34.49855,0,0,0,10.29483-3.79076A35.83757,35.83757,0,0,0,85.25745,96.54538c0.37949-1.98944-.099-4.82578-0.4577-7.24123C84.70671,90.79261,84.68746,91.603,84.69,92.41756ZM76.1948,73.458V72.99941a6.90015,6.90015,0,0,0-.15132-1.39866v-0.0017A35.63384,35.63384,0,0,1,82.18221,90.642c-0.02249.03425-.03987,0.06833-0.05828,0.10241-0.05078.10309-.10395,0.22629-0.158,0.35444a3.66516,3.66516,0,0,1-.31882.64821,1.55378,1.55378,0,0,1-.20874-0.00665,1.3232,1.3232,0,0,1-.144-0.11655l-0.16563-.14058a0.74124,0.74124,0,0,1-.26617-0.42192A4.19391,4.19391,0,0,0,80.4891,90.271a0.98617,0.98617,0,0,0-.47014-0.57,2.49757,2.49757,0,0,1-.39772-0.39192,3.87914,3.87914,0,0,1-.38443-0.46349,0.91967,0.91967,0,0,0,.06152-0.33518,15.17957,15.17957,0,0,0-.07821-1.7548,2.18565,2.18565,0,0,0-.366-0.97521,6.67289,6.67289,0,0,1-.3362-0.63475,1.88981,1.88981,0,0,1-.25628-1.12244l0.00256-.31286a1.42627,1.42627,0,0,0-.20295-0.91693,5.30567,5.30567,0,0,1-.34711-0.73137A11.34038,11.34038,0,0,1,77.23,78.76053a4.76728,4.76728,0,0,0-.03255-0.53506,7.11481,7.11481,0,0,1-.04073-0.79458,2.70094,2.70094,0,0,0-.52842-1.43444A8.07156,8.07156,0,0,1,76.01349,74.82c-0.04737-.11894-0.08571-0.213-0.11229-0.28542a0.824,0.824,0,0,0,.28116-0.465A0.71946,0.71946,0,0,0,76.1948,73.458Zm-3.54436-3.339a0.46307,0.46307,0,0,1,.04908-0.10821,1.0632,1.0632,0,0,0,.09815-0.24385,2.08315,2.08315,0,0,0,.39107.35955A3.37571,3.37571,0,0,1,73.8119,71.169a3.57,3.57,0,0,0,.33535,1.00094c0.10889,0.21709.272,0.639,0.33365,0.798l0.05163,0.11979a0.64772,0.64772,0,0,1,.0973.31524c-0.0075.03169-.01414,0.06169-0.01909,0.09082a0.7498,0.7498,0,0,1-.57494-0.47184c-0.12235-.16563-0.189-0.27452-0.2464-0.36773a1.585,1.585,0,0,0-.68893-0.63407,3.471,3.471,0,0,0-.54-0.27281,0.53355,0.53355,0,0,0-.10974-0.04l-0.00511.00426a0.52837,0.52837,0,0,1-.02232-0.10565A1.36742,1.36742,0,0,0,72.236,71.0691c0.01005-.02743.03084-0.07327,0.07072-0.15472a1.23017,1.23017,0,0,1,.12473-0.21641A0.61044,0.61044,0,0,0,72.65044,70.11894Zm-1.05257-3.88227a0.51558,0.51558,0,0,0-.38187.34353,0.676,0.676,0,0,0,.33194.729,8.95048,8.95048,0,0,0,.85951.58738l-0.00256.01585a2.36906,2.36906,0,0,1-.09065.37182,1.4372,1.4372,0,0,0-.07907.52671,4.62616,4.62616,0,0,0-.44424-0.21709,3.20436,3.20436,0,0,1-.85627-0.48343c-0.04822-.03919-0.10139-0.08077-0.16631-0.1307a1.79391,1.79391,0,0,0-.21385-0.138,0.48235,0.48235,0,0,1-.04158-0.09321c0.10395-.198.04567-0.30366-0.357-1.02752a13.68872,13.68872,0,0,1-.63816-1.27137,1.49132,1.49132,0,0,0-.3253-0.53012,1.40054,1.40054,0,0,0-.3529-0.26037,0.84453,0.84453,0,0,1-.23788-0.18386,2.15052,2.15052,0,0,0-.21965-0.19647l-0.0184-.02743a0.78833,0.78833,0,0,0-.50422-0.31524c-0.13053-.03408-0.13394-0.03578-0.16887-0.19562a2.39438,2.39438,0,0,1-.04993-0.50831,1.77673,1.77673,0,0,0-.04073-0.41851A36.51664,36.51664,0,0,1,71.59786,66.23667Zm-5.93254,35.54056a3.97251,3.97251,0,0,0,.39448.32445,1.0575,1.0575,0,0,0,.60731.28628c0.06169,0,.1157-0.01159.13649-0.00665a3.60458,3.60458,0,0,0,.13649.44424,0.47176,0.47176,0,0,0,.06237.14655l-0.02488.04482a2.68492,2.68492,0,0,0-.26378.63747,0.981,0.981,0,0,0,.04652,1.0783,0.76171,0.76171,0,0,0,.74551.5141,1.6562,1.6562,0,0,0,.60987-0.143,2.02512,2.02512,0,0,0,.3587-0.18642,0.55381,0.55381,0,0,1,.33535-0.1048l0.04158-.0017a1.419,1.419,0,0,0,.28781.3011,0.76565,0.76565,0,0,0,.46843.17977A0.94144,0.94144,0,0,0,70.25,104.954a4.11164,4.11164,0,0,1,.54086-0.43265c0.07821-.055.13479-0.08656,0.17125-0.10991a1.61974,1.61974,0,0,0,.852.22135,3.11564,3.11564,0,0,1,.87535.12814,2.39235,2.39235,0,0,0,.6632.123l0.13717,0.00682c0.07583,0.00324.12729,0.00665,0.16239,0.00818,0.02982,0.03.06475,0.06,0.11059,0.10156a10.18416,10.18416,0,0,1-.69814,3.01373,1.36931,1.36931,0,0,1-.173-0.03,1.90793,1.90793,0,0,0-.29377-0.03664,0.44173,0.44173,0,0,0-.41766.2297,8.391,8.391,0,0,0-.46009.98169c-0.06083.1549-.1307,0.33126-0.37114,0.82883a1.59471,1.59471,0,0,0-.28116,1.21633,1.361,1.361,0,0,1-.01176.60084,4.86408,4.86408,0,0,0-.04243.79544,1.03224,1.03224,0,0,1-.1157.70223,1.52382,1.52382,0,0,1-.21624.11638,1.83652,1.83652,0,0,0-.56079.36279,3.97588,3.97588,0,0,1-1.54759.78709,4.248,4.248,0,0,0-.47338.17654,2.06132,2.06132,0,0,0-.72557.624c-0.05913.06986-.12405,0.14808-0.20142,0.23294a2.8707,2.8707,0,0,1-.80123.51581c-0.13649.06833-.27707,0.14143-0.41766,0.22306a1.66607,1.66607,0,0,0-.684.72216,3.889,3.889,0,0,1-.44509.63577,6.02019,6.02019,0,0,1-.64412.69388c-0.06152.05317-.13053,0.11485-0.23124,0.21624-0.31371.31456-1.635,1.56259-2.03937,1.86556a2.68691,2.68691,0,0,1-.77039.38937l-0.06.02658c-0.12644.04822-.27043,0.1048-0.4393,0.17466a1.05357,1.05357,0,0,0-.693.53915,1.63345,1.63345,0,0,0-.29377.27639,1.1321,1.1321,0,0,1-.1963.18131c-0.1065.08162-.20891,0.15813-0.33535,0.25134a4.16933,4.16933,0,0,0-.48667.386c-0.10071.07992-.63236,0.34455-1.17833,0.609-0.55994.1382-1.15311,0.25628-1.763,0.34949-0.87706.1399-1.773,0.2297-2.65674,0.30962A7.13881,7.13881,0,0,0,53.57,123.0059a8.08681,8.08681,0,0,0,.31456-1.57417,8.70841,8.70841,0,0,1,.64565-1.25978,14.28055,14.28055,0,0,0,1.26626-3.23832,1.50109,1.50109,0,0,0-.3984-1.5009l-0.06407-.07327a2.40342,2.40342,0,0,0-1.24734-.50746,6.74326,6.74326,0,0,1-.73886-0.19818,2.78876,2.78876,0,0,1-.98424-0.5458,0.67052,0.67052,0,0,0,.02249-0.1796,1.20946,1.20946,0,0,0-.4393-0.8837c-0.06-.06663-0.129-0.14314-0.20806-0.23788-0.11741-.13649-0.23959-0.273-0.36364-0.40948a3.44022,3.44022,0,0,1-.47849-0.594,5.22558,5.22558,0,0,0-.59147-1.20321,1.70562,1.70562,0,0,0-.59164-0.55415,1.66381,1.66381,0,0,1-.3103-0.23959l-0.01755-.0898c-0.01159-.05334-0.04328-0.22306-0.09645-0.54921a0.40457,0.40457,0,0,0,.08895-0.07651c0.01926-.00494.08742-0.0167,0.12729-0.02335a1.85625,1.85625,0,0,0,.29462-0.06492,0.55761,0.55761,0,0,0,.40845-0.4059c0.07907-.33791-0.1048-0.52092-0.65639-1.07336-0.0184-.01994-0.03493-0.03493-0.04822-0.04822a0.1525,0.1525,0,0,1,.01329-0.015,1.05874,1.05874,0,0,0,.28457-0.38783,1.15471,1.15471,0,0,1,.23618-0.25628,4.67479,4.67479,0,0,0,.52177-0.55568,1.30594,1.30594,0,0,0,.36773-0.94692,0.73565,0.73565,0,0,1,.01244-0.19136c0.015-.0898.015-0.0898,0.18318-0.19971a3.935,3.935,0,0,0,.33774-0.24793,0.681,0.681,0,0,0,.3345-0.60407,0.54453,0.54453,0,0,0-.35273-0.4243,0.1709,0.1709,0,0,1-.09321-0.06663,1.19342,1.19342,0,0,1,.02164-0.72046l0.03578-.18472a0.68551,0.68551,0,0,0-.26634-0.837,1.34253,1.34253,0,0,0,.38613.02317,0.79912,0.79912,0,0,0,.59317-0.24793,0.71949,0.71949,0,0,0,.10991-0.594,1.16794,1.16794,0,0,1,.00239-0.45429c0.02164-.09986.03578-0.16137,0.04754-0.20141a1.32648,1.32648,0,0,0,.371-0.22289,3.08657,3.08657,0,0,1,.33961-0.24129,3.18275,3.18275,0,0,0,.71467-0.59573,2.46981,2.46981,0,0,1,.23788-0.24129,1.04208,1.04208,0,0,0-.01568.45429,1.08871,1.08871,0,0,0,.084.25288,0.1449,0.1449,0,0,1,.015.08827,1.05909,1.05909,0,0,0,.8728,1.0599,0.96611,0.96611,0,0,0,.21471.025,0.73721,0.73721,0,0,0,.7271-0.907,1.14975,1.14975,0,0,0-.20295-0.6206c-0.0242-.04-0.04754-0.07821-0.07242-0.1249a1.13023,1.13023,0,0,0,.25458-0.03323,1.66382,1.66382,0,0,1,.47593.23464l0.18966,0.11485c0.12064,0.06816.19392,0.11979,0.2539,0.15813a1.98079,1.98079,0,0,0,.633.27793,1.69327,1.69327,0,0,0,.96942-0.0167,3.57366,3.57366,0,0,1,.57988-0.10991,3.75388,3.75388,0,0,1,1.4278.17977c0.16972,0.03987.36108,0.08486,0.58414,0.13479,0.77959,0.17807.96771,0.2297,1.21054,0.29292l0.2539,0.06492a2.62,2.62,0,0,1,.51751.37267,2.52,2.52,0,0,0,1.11409.64736,3.16442,3.16442,0,0,0,.72046.0017,2.1055,2.1055,0,0,1,.54341-0.0017A0.46857,0.46857,0,0,1,65.66532,101.77723ZM51.51242,67.52048a0.56464,0.56464,0,0,0-.19051.3253,1.8206,1.8206,0,0,1-.96277-0.3362,1.10156,1.10156,0,0,0-.4151-0.50166,0.47343,0.47343,0,0,1-.10326-0.08486,0.80483,0.80483,0,0,0-.8728-0.18557,1.40331,1.40331,0,0,1-.28116.05487,0.81332,0.81332,0,0,0-.61413.30621,0.61305,0.61305,0,0,1-.386.17228,0.93605,0.93605,0,0,0-.89376.72813,2.51143,2.51143,0,0,0-.57817-0.1249,4.15077,4.15077,0,0,1-.7663-0.15967,0.60766,0.60766,0,0,0-.50763-0.29207,0.76527,0.76527,0,0,0-.36688.10974,1.20163,1.20163,0,0,1-.36023.12985,0.68327,0.68327,0,0,0-.69558.81128,4.431,4.431,0,0,1-.09986,1.06075c-0.0167.07736-.03,0.14484-0.04413,0.20465a0.512,0.512,0,0,0-.27793.25628,0.75069,0.75069,0,0,0-.07327.55176,1.23009,1.23009,0,0,1,.0259.26532,1.01207,1.01207,0,0,0,.40181.93193l0.2055,0.07821,0.10991-.02079a2.23933,2.23933,0,0,1,.49843.03749,2.91033,2.91033,0,0,1,.71961.17551l0.17637,0.05828a1.76755,1.76755,0,0,1,.48258.22629,2.26273,2.26273,0,0,0,.342.19051,1.13216,1.13216,0,0,0,.47678.10735l0.04669-.00256c-0.025.10071-.05248,0.21471-0.07157,0.342a1.18768,1.18768,0,0,0,.35767,1.00759,2.53357,2.53357,0,0,1,.33279.49093,0.9243,0.9243,0,0,0,.768.63577,0.97318,0.97318,0,0,0,.2205-0.03,0.28108,0.28108,0,0,1,.09236-0.01005,0.61375,0.61375,0,0,0,.67479-0.14143,0.68863,0.68863,0,0,0,.10821-0.59164,1.68214,1.68214,0,0,1-.0259-0.3984,1.25081,1.25081,0,0,0-.24623-0.97521c-0.02488-.03749-0.05231-0.07566-0.08316-0.1249,0.02914-.01994.07157-0.04908,0.12814-0.08895a2.37007,2.37007,0,0,0,.35614-0.28048,0.83017,0.83017,0,0,0,.282-0.87774,2.89538,2.89538,0,0,1-.04073-0.33688,1.08541,1.08541,0,0,0-.44356-0.87876,0.974,0.974,0,0,1-.23788-0.252,0.99529,0.99529,0,0,0,.1946-0.36279,1.46031,1.46031,0,0,0,.0334-0.90535c-0.01414-.05981-0.03084-0.12968-0.04669-0.21454a0.68124,0.68124,0,0,0,.045-0.05828c0.06731,0,.18472.00324,0.36364,0.01823l0.06475,0.00579a1.91881,1.91881,0,0,1,.84792.49008L50.583,69.34838c0.13479,0.09662.22289,0.16648,0.27946,0.21471a0.35553,0.35553,0,0,0-.00409.06,1.02754,1.02754,0,0,0,.28287.599c0.07327,0.09832.16393,0.21811,0.25628,0.367a0.89037,0.89037,0,0,0,.68808.47917,0.68349,0.68349,0,0,0,.65059-0.67138,3.531,3.531,0,0,0,.04754-0.41936,3.72552,3.72552,0,0,1,.04482-0.41527c0.11655,0.17313.24725,0.39687,0.31286,0.50592,0.1399,0.23873.28457,0.486,0.432,0.68893a1.57053,1.57053,0,0,0,.74789.6523,0.6075,0.6075,0,0,1,.21471.13564,2.32138,2.32138,0,0,1,.37267.44765,2.00541,2.00541,0,0,0,.357.42515,0.81354,0.81354,0,0,0,.86871.08486,1.43546,1.43546,0,0,1,.37437-0.12644,1.75517,1.75517,0,0,0,.18472.36279c-0.0242.02335-.04993,0.04908-0.07481,0.07821a2.22445,2.22445,0,0,0-.50933,1.23388,1.2149,1.2149,0,0,1-.68059.10241c-0.24367,0-.50422-0.01755-0.74636-0.0334a2.43289,2.43289,0,0,0-1.0858.06c-0.09986.04993-.173,0.08145-0.23959,0.10906a1.52022,1.52022,0,0,0-.56744.37352,0.63353,0.63353,0,0,0-.18063.54171,1.30331,1.30331,0,0,0,.72472.797L53.609,76.14963l0.432-.3679c0.01329,0.00511.03067,0.0092,0.04737,0.01414a2.35238,2.35238,0,0,0,.61992.74057c0.07225,0.06986.14808,0.14484,0.2205,0.21794a1.65339,1.65339,0,0,0-.37369.28372,1.91346,1.91346,0,0,1-.28951.2389c-0.114.0823-.26787,0.1946-0.5383,0.41186a0.74227,0.74227,0,0,1-.42277.2205,1.58773,1.58773,0,0,0-.6523.25543A0.78629,0.78629,0,0,0,52.3145,79.283c0.0075,0.01755.01585,0.03408,0.01994,0.01755a0.19988,0.19988,0,0,1-.13649.17637,2.07752,2.07752,0,0,0-.81043.54921,0.96845,0.96845,0,0,0-.2188.4076,0.87478,0.87478,0,0,1-.11809.26123,1.83812,1.83812,0,0,0-.16137.25543,0.50155,0.50155,0,0,0-.19221-0.03578,0.64012,0.64012,0,0,0-.42192.19392,0.88793,0.88793,0,0,0-.35035.70887l-0.03152.22561a0.76018,0.76018,0,0,0,.40522.8803,0.1785,0.1785,0,0,1,.07821.05811l0.00665,0.01585a1.14868,1.14868,0,0,0-.0259.41527,1.13436,1.13436,0,0,0,.14314.48258,2.92052,2.92052,0,0,0-.40845.34183l-0.06.05828a1.17379,1.17379,0,0,0-.12559.09236,1.58136,1.58136,0,0,0-.26549.27384,1.55433,1.55433,0,0,1-.1963.22289,3.43635,3.43635,0,0,1-.9551.6874A0.86189,0.86189,0,0,0,47.88218,86.62a2.89536,2.89536,0,0,0,.10906,1.203l0.03493,0.14655a5.50061,5.50061,0,0,0,.29531.77039,7.06588,7.06588,0,0,1,.41442,1.1117c0,0.13888,0,.198-0.144.23464a0.928,0.928,0,0,0-.1232-0.327,1.424,1.424,0,0,1-.11144-0.22391,2.49234,2.49234,0,0,0-.29036-0.54239c-0.02658-.04243-0.04822-0.07583-0.06407-0.10241a0.532,0.532,0,0,0-.05317-0.31865,1.632,1.632,0,0,1-.05589-0.17807,1.96949,1.96949,0,0,0-.2861-0.66644,1.07713,1.07713,0,0,0-1.19741-.30621,0.56691,0.56691,0,0,1-.069.01005c-0.00988-.01585-0.02335-0.03578-0.04243-0.06663a0.81614,0.81614,0,0,0-.66474-0.34285,0.69137,0.69137,0,0,1-.26872-0.06492,1.43834,1.43834,0,0,0-.867-0.12968,1.06444,1.06444,0,0,1-.12814.00988,0.77784,0.77784,0,0,0-.62827.20227l-0.05317.04482a0.57794,0.57794,0,0,0-.21147.30212c-0.03647-.01159-0.0731-0.02164-0.11229-0.03255a1.84747,1.84747,0,0,0-.47593-0.08145l-0.13479.00341c-0.11979,0-.32359-0.0092-0.60322-0.03749a1.79325,1.79325,0,0,0-1.31465.26958,0.57991,0.57991,0,0,1-.35358.1215,1.11891,1.11891,0,0,0-1.01168.48752,0.87934,0.87934,0,0,1-.23635.2297,0.8294,0.8294,0,0,0-.42021,1.01594,0.67606,0.67606,0,0,1,.02743.28031c-0.00324.03084-.01074,0.07566-0.01738,0.11655a1.25422,1.25422,0,0,0-.154.24623,1.33534,1.33534,0,0,1-.11059.2038,1.79515,1.79515,0,0,0-.15643.22715,1.0313,1.0313,0,0,0-.13223.80379,1.15162,1.15162,0,0,1,.02573.2297c0,0.17142.01994,0.41016,0.04584,0.69064,0.02982,0.33194.06322,0.70717,0.06322,1.03655a0.99,0.99,0,0,0,.48582.96686,1.81915,1.81915,0,0,1,.34626.30621c0.02232,0.02743.05811,0.06833,0.09236,0.10821a1.28009,1.28009,0,0,0,.0656.47678,0.78806,0.78806,0,0,0,.79049.65724A2.62525,2.62525,0,0,0,40.45947,95.69a2.14579,2.14579,0,0,1,.68893.01005,1.07433,1.07433,0,0,0,1.38043-.61072,2.39263,2.39263,0,0,1,.28628-0.44765l0.188-.228A4.0951,4.0951,0,0,1,44.1272,93.396c0.14808-.1048.23959-0.15711,0.28287-0.18472,0.015,0.00835.03323,0.021,0.05248,0.03084l-0.129,1.54435c-0.00341.04328-.00665,0.0806-0.01091,0.11638a1.36781,1.36781,0,0,0-.26037.30962,1.9917,1.9917,0,0,1-.38357.42754,1.61486,1.61486,0,0,0-.44509.57494,0.78417,0.78417,0,0,0-.07072.65741,0.752,0.752,0,0,0,.515.38443c0.05487,0.01909.11894,0.04073,0.19221,0.06986a2.04819,2.04819,0,0,0,.78623.11724,7.9428,7.9428,0,0,0,1.0035-.07566c0.17551,0.02914.6523,0.10906,0.96856,0.16716a0.37889,0.37889,0,0,1,.25952.2297l-0.01159.02335a2.83266,2.83266,0,0,0-.29548.88353,1.18581,1.18581,0,0,0,.03169.80719,0.914,0.914,0,0,1,.07992.28457,1.30088,1.30088,0,0,0,.18046.53574,0.66127,0.66127,0,0,1-.38937-0.11315c-0.02743-.0167-0.05248-0.03152-0.07327-0.045a0.64772,0.64772,0,0,0-.02164-0.32274,1.79369,1.79369,0,0,0-.71876-0.85371,1.50987,1.50987,0,0,1-.50592-0.5141,0.8556,0.8556,0,0,0-.50507-0.50592,2.9357,2.9357,0,0,1-.38766-0.228,1.463,1.463,0,0,0-1.00009-.243,1.68535,1.68535,0,0,1-.39618-0.00988,2.22333,2.22333,0,0,1-1.0616-.66576c-0.09662-.0973-0.18148-0.17466-0.25884-0.24453a1.29266,1.29266,0,0,1-.27861-0.30621,0.84158,0.84158,0,0,0-.79629-0.42106c-0.05334,0-.11315.0017-0.17483,0.00341l-0.13223.00239a5.02151,5.02151,0,0,1-1.52936-.21215,5.61158,5.61158,0,0,1-.83531-0.53915,3.96426,3.96426,0,0,0-.46843-0.31286c-0.054-.02573-0.17722-0.074-0.33774-0.13223a3.60978,3.60978,0,0,1-1.42456-.71313,1.22135,1.22135,0,0,0-.72387-0.55909,0.18627,0.18627,0,0,1-.13888-0.08742,1.55746,1.55746,0,0,1-.07992-0.13717,1.03388,1.03388,0,0,0,.15217-0.694l-0.00068-.10974a1.93848,1.93848,0,0,0-.34455-1.21071,0.41563,0.41563,0,0,1-.09986-0.2021,4.36074,4.36074,0,0,0-.16137-0.51342A2.0642,2.0642,0,0,0,33.497,89.4921c-0.04413-.04073-0.1065-0.09389-0.12064-0.11059a1.54689,1.54689,0,0,1-.25049-0.53251,0.5613,0.5613,0,0,1-.00988-0.10565,1.58373,1.58373,0,0,0,.01329-0.22306,0.9207,0.9207,0,0,0-.37523-0.70478c-0.06578-.06475-0.14723-0.143-0.26719-0.27537a1.10026,1.10026,0,0,1-.41186-0.708,4.62557,4.62557,0,0,0-.23209-0.7571l-0.07157-.19562a1.25533,1.25533,0,0,1-.07736-0.41936,2.07535,2.07535,0,0,0-.05317-0.4001,0.75664,0.75664,0,0,0-.69643-0.63407H30.71879l-0.14058.18472a1.24022,1.24022,0,0,0-.19886.7421c0,0.11655.01414,0.27707,0.03493,0.46843-0.05572-.05811-0.108-0.10395-0.14978-0.143l-0.03238-.0259c0.00494-.04328.01585-0.10821,0.02573-0.16307a3.793,3.793,0,0,0,.06492-0.67718,3.59179,3.59179,0,0,0-.17892-1.00605,2.25836,2.25836,0,0,1-.074-0.29036,1.03255,1.03255,0,0,0-.60493-0.91693l-0.08077-.05981c-0.01329-.01005-0.02573-0.01926-0.03732-0.02914a2.07465,2.07465,0,0,0-.2464-0.82372,0.77919,0.77919,0,0,1-.14314-0.61992,1.05326,1.05326,0,0,0,.1416-0.5366,2.16078,2.16078,0,0,1,.0075-0.34626l0.02573-.17381a4.42209,4.42209,0,0,0-.02573-0.80788c-0.02164-.24879-0.04328-0.52671-0.04328-0.79629a0.94486,0.94486,0,0,1,.20959-0.67905l0.07992-.12133a2.83043,2.83043,0,0,0,.21385-0.382l0.06066-.12559a1.1957,1.1957,0,0,1,.189-0.17637,1.43509,1.43509,0,0,0,.27111-0.25628,8.49218,8.49218,0,0,0,.77465-1.58746,0.55342,0.55342,0,0,0,.19307.03578,0.692,0.692,0,0,0,.58738-0.76562c0.02829-.16887.06663-0.40266,0.1399-0.68553a1.10368,1.10368,0,0,0,.07481-0.86036c-0.00579-.04737-0.01585-0.10974-0.02829-0.19392a1.34389,1.34389,0,0,0-.14229-0.45583l-0.07157-.159a4.22986,4.22986,0,0,1-.2222-0.70393L31.278,70.86854c-0.02743-.0956-0.04413-0.15967-0.05248-0.2021a1.17661,1.17661,0,0,0,.13649-0.4393,2.691,2.691,0,0,1,.16631-0.58993,9.47632,9.47632,0,0,0,.29207-0.94778,2.548,2.548,0,0,0,.10991-1.12482,1.96939,1.96939,0,0,1-.0242-0.31712,2.37568,2.37568,0,0,0-.60987-1.40939l-0.05572-.04822a0.42051,0.42051,0,0,1-.04413-0.03,0.78451,0.78451,0,0,0,.129-0.51921,0.47716,0.47716,0,0,0-.47934-0.50166,0.49842,0.49842,0,0,0-.38766.20039,0.23088,0.23088,0,0,1-.11485.08333,0.7021,0.7021,0,0,0-.52245.663,1.22117,1.22117,0,0,1-.466.13479,2.95575,2.95575,0,0,0-.54733.105,2.01979,2.01979,0,0,1-.38783.074,2.24939,2.24939,0,0,1-.34523.015l-0.08827-.21641a0.68615,0.68615,0,0,0,.21641-0.36023,0.73677,0.73677,0,0,0,.04482-0.46264L28.24608,64.967a0.97169,0.97169,0,0,0,.14467-0.10071,1.17388,1.17388,0,0,1,.1399-0.05657,1.11537,1.11537,0,0,0,.80873-0.80634,3.22253,3.22253,0,0,0,.06646-0.40351l-0.30689-.03834,0.33194-.01909c-0.02743.02743-.05572,0.03578-0.00341,0.03084a1.30933,1.30933,0,0,1,.486.12559,0.72409,0.72409,0,0,0,.31695.06986,1.19682,1.19682,0,0,0,1.00435-.62231,0.76,0.76,0,0,0-.06833-0.61566,0.62453,0.62453,0,0,1,.07992-0.19647,0.48454,0.48454,0,0,1,.17551-0.04908,0.881,0.881,0,0,0,.13734.24555,0.58592,0.58592,0,0,0,.46094.24879,0.51532,0.51532,0,0,0,.39022-0.18233,0.62826,0.62826,0,0,0,.37778-0.39857,0.8545,0.8545,0,0,0,.46094-0.14893,0.24342,0.24342,0,0,1,.13155-0.04567,3.32005,3.32005,0,0,0,.44509-0.11826,0.28914,0.28914,0,0,1,.29122-0.01329,2.08414,2.08414,0,0,0,.38528.07327,1.973,1.973,0,0,1,.57238.17807c0.054,0.02164.09986,0.04413,0.144,0.05828,0.04328,0.11144.11894,0.34779,0.18557,0.56164l0.03493,0.11229a0.79763,0.79763,0,0,0-.05743.3253,1.16107,1.16107,0,0,0,.153.63151,0.69937,0.69937,0,0,0,.74057.32206,3.77829,3.77829,0,0,1,.57579.02317l0.0806,0.00511c0.2539,0.01585.56676,0.03664,0.94028,0.05078,0.06663,0.00153.1215,0.00579,0.168,0.0075a0.59619,0.59619,0,0,0,.33791.1796c0.01244,0.01994.04158,0.10326,0.05811,0.14655a1.97175,1.97175,0,0,0,.273.55909,0.633,0.633,0,0,0,1.1998-.28372c0.01823-.05334.03749-0.11076,0.05828-0.16393a1.12,1.12,0,0,0,.17722-0.17057,0.74354,0.74354,0,0,0,.21045-0.54256,0.80219,0.80219,0,0,0-.33944-0.549,0.72026,0.72026,0,0,1-.08077-0.07736,1.34856,1.34856,0,0,0-.36193-0.30621c0.03578-.03084.07992-0.06748,0.1382-0.10991a1.38826,1.38826,0,0,0,.56659-0.13394l0.19392-.08827c0.16563-.07736.18966-0.0881,0.79714-0.336,0.41766-.17228.2994-0.14655,0.53319-0.02079,0.07907,0.04243.18148,0.0973,0.31456,0.15558l-0.00085.00579a0.655,0.655,0,0,0,.3362.68485l-0.00579.02982a0.83506,0.83506,0,0,0,.69967.858c0.06083,0.029.12814,0.059,0.20056,0.0956a0.53081,0.53081,0,0,0-.01005.10565,0.59112,0.59112,0,0,0,.45514.55909,1.62977,1.62977,0,0,0,.83292.02914,0.861,0.861,0,0,0,.57579-0.4001,3.05243,3.05243,0,0,1,.1946-0.24129,0.61661,0.61661,0,0,1,.28372-0.24725c0.04584-.01823.10156-0.03987,0.174-0.07225l0.14638-.06492a1.28664,1.28664,0,0,0,.21471-0.10821l0.14143-.05743a2.207,2.207,0,0,1,.30127.02914,6.03429,6.03429,0,0,0,.80958.06,0.51125,0.51125,0,0,1,.48343.16137,1.47711,1.47711,0,0,0,.28031.23788c0.09986,0.06322.18727,0.12576,0.28048,0.19307a6.98694,6.98694,0,0,0,.708.4652,1.18253,1.18253,0,0,0,.699.28031l0.03152-.00494a1.98886,1.98886,0,0,1,1.23558.30536,0.647,0.647,0,0,1,.24129.55159l0.01091,0.19477,0.00324,0.03732a1.36452,1.36452,0,0,0-.25049.867A0.68508,0.68508,0,0,0,51.51242,67.52048ZM40.44379,56.5742a35.44344,35.44344,0,0,1,6.266-.57255c0.42021,0,.84213.00835,1.27563,0.02335-0.01005.0092-.021,0.01585-0.03169,0.0242-0.13479.09389-.282,0.19886-0.46349,0.31865a0.80943,0.80943,0,0,1-.53165.21385L46.749,56.57659c-0.2055-.00494-0.47934-0.01244-0.8803.01091a9.88134,9.88134,0,0,1-1.269-.00085,7.39434,7.39434,0,0,0-1.104.0017c-0.24964.02164-.51666,0.05743-0.80123,0.09815a6.57313,6.57313,0,0,1-2.08521.05981l-0.43418-.10224C40.26146,56.61578,40.35638,56.60079,40.44379,56.5742Zm-7.13064,3.13335a9.95266,9.95266,0,0,1,1.41365-.78964L34.844,59.0544c0.0167-.01074.03749-0.01823,0.055-0.02914-0.15728.12235-.31132,0.24385-0.50269,0.387a1.47966,1.47966,0,0,1-.80873.25288C33.51116,59.67518,33.40466,59.69341,33.31315,59.70755Zm24.87306-1.77883,0.00324-.02249q1.61515,0.55415,3.17016,1.25978l-0.09577.33859a1.08065,1.08065,0,0,0,.813,1.298,3.65,3.65,0,0,1,.8803.47338,3.21066,3.21066,0,0,0,.57068.33041,10.73523,10.73523,0,0,1,1.5435.77039l0.02658,0.01585a0.79716,0.79716,0,0,0-.0823.61566c-0.02573-.01074-0.04993-0.01909-0.07651-0.03067a5.22257,5.22257,0,0,1-.93108-0.48922c-0.72557-.43606-1.22809-0.68229-1.56088-0.84622-0.159-.07821-0.27622-0.13479-0.34029-0.17722-0.18727-.12405-1.64659-1.28807-2.17245-1.7398a5.93094,5.93094,0,0,1-.48258-0.46929,1.97624,1.97624,0,0,0-.57255-0.47764,9.23823,9.23823,0,0,0-1.10318-.386A0.57187,0.57187,0,0,0,58.18621,57.92873Zm-1.06672,3.18583a4.72413,4.72413,0,0,0,.39687.288,0.80044,0.80044,0,0,0,.10326.23618,0.70113,0.70113,0,0,1,.09474.38119c-0.411,1.02173-.42924,1.68153-0.05657,1.961a3.86223,3.86223,0,0,1,.417,1.467,3.6145,3.6145,0,0,0,.57408,1.575,2.417,2.417,0,0,1,.32615,1.16487,1.61227,1.61227,0,0,0-.32121-0.13564,3.90442,3.90442,0,0,1-.52842-0.1963,5.28013,5.28013,0,0,0-.97419-0.327,4.70468,4.70468,0,0,1-.94522-0.30962c-0.1382-.05743-0.28713-0.11979-0.47184-0.188a4.08132,4.08132,0,0,1-1.47926-1.452l-0.21556-.32189a6.36563,6.36563,0,0,1-.56829-0.95766,1.22848,1.22848,0,0,0-.97521-0.68979,1.56913,1.56913,0,0,1-.58158-0.22306c-0.06816-.04652-0.11724-0.0823-0.15558-0.10906l-0.00085-.00494a0.58983,0.58983,0,0,0-.34029-0.36108A5.06483,5.06483,0,0,0,49.637,62.351a3.44289,3.44289,0,0,1-1.11988-.23873c0.00579-.02675.01414-0.05743,0.02488-0.09662a3.96726,3.96726,0,0,0,.09815-0.47508c0.0242-.17057.0242-0.17057,0.41612-0.3086l0.17722-.06578a7.04292,7.04292,0,0,1,1.104-.26378c0.28628-.05317.55756-0.10309,0.78044-0.168a15.57071,15.57071,0,0,1,2.68332-.129c1.03178,0,1.164,0,2.18336.07242A1.69584,1.69584,0,0,1,57.11949,61.11456Zm24.37633,42.132c0.13053-.38766.2861-0.76374,0.40436-1.15652a7.83393,7.83393,0,0,0-.24879,1.24138Zm0.68893-1.79382a3.09685,3.09685,0,0,0-.282.629c0.26958-.89359.48326-1.81052,0.68467-2.73069,0.08077-.06986.16137-0.13649,0.243-0.20806A5.4626,5.4626,0,0,1,82.18476,101.45278Z" transform="translate(0 -2.94629)" fill="#fff"/><path d="M53.174,50.59093c-1.15822-.015-2.3098.01665-3.45388,0.1065,1.36543,0.4701,2.0968.13895,3.98127,0.48093Z" transform="translate(0 -2.94629)" fill="#fff"/><path d="M52.79367,52.67183c0.57664-.01994,1.15413-0.02079,1.734-0.01159-0.91932-.12985-1.84136-0.23805-2.769-0.29616C52.10729,52.46309,52.45253,52.56039,52.79367,52.67183Z" transform="translate(0 -2.94629)" fill="#fff"/><path d="M20.55295,63.60073A38.09707,38.09707,0,0,0,16.70152,69.247l0.2994-.32206A38.2443,38.2443,0,0,1,20.55295,63.60073Z" transform="translate(0 -2.94629)" fill="#fff"/><path d="M14.51646,110.20241c0.27554,0.37454.53182,0.76562,0.82134,1.1284l-0.18148-.42941A3.50568,3.50568,0,0,1,14.51646,110.20241Z" transform="translate(0 -2.94629)" fill="#fff"/><path d="M14.2036,109.77317a10.03526,10.03526,0,0,0-.72625-0.99685C13.70535,109.11917,13.964,109.43867,14.2036,109.77317Z" transform="translate(0 -2.94629)" fill="#fff"/><path d="M39.81552,129.45425c-1.92861-.28287-0.37267.46094-0.99089,0.639C40.25158,129.4643,41.24161,130.62235,39.81552,129.45425Z" transform="translate(0 -2.94629)" fill="#fff"/><path d="M43.91249,129.85367c1.4128,0.57408,1.51521.08316,2.33229-.04993A10.16543,10.16543,0,0,0,43.91249,129.85367Z" transform="translate(0 -2.94629)" fill="#fff"/></svg>